<?xml version="1.0" encoding="iso-8859-1"?>
<!-- Generator: Adobe Illustrator 19.0.0, SVG Export Plug-In . SVG Version: 6.00 Build 0)  -->
<svg version="1.1" id="Capa_1" xmlns="http://www.w3.org/2000/svg" xmlns:xlink="http://www.w3.org/1999/xlink" x="0px" y="0px"
	 viewBox="0 0 469.333 469.333" style="enable-background:new 0 0 469.333 469.333;" xml:space="preserve">
<g>
	<g>
		<g>
			<path d="M216.458,359.542c2.083,2.083,4.813,3.125,7.542,3.125c2.729,0,5.458-1.042,7.542-3.125L341.333,249.75v59.583
				c0,5.896,4.771,10.667,10.667,10.667c5.896,0,10.667-4.771,10.667-10.667V224c0-5.896-4.771-10.667-10.667-10.667h-85.333
				c-5.896,0-10.667,4.771-10.667,10.667c0,5.896,4.771,10.667,10.667,10.667h59.583L224,336.917L103.542,216.458
				c-4.167-4.167-10.917-4.167-15.083,0c-4.167,4.167-4.167,10.917,0,15.083L216.458,359.542z"/>
			<path d="M426.667,0h-384C19.135,0,0,19.146,0,42.667v384c0,23.521,19.135,42.667,42.667,42.667h384
				c23.531,0,42.667-19.146,42.667-42.667v-384C469.333,19.146,450.198,0,426.667,0z M448,426.667
				c0,11.771-9.573,21.333-21.333,21.333h-384c-11.76,0-21.333-9.563-21.333-21.333v-320H448V426.667z M448,85.333H21.333V42.667
				c0-11.771,9.573-21.333,21.333-21.333h384c11.76,0,21.333,9.563,21.333,21.333V85.333z"/>
			<circle cx="53.333" cy="53.333" r="10.667"/>
			<circle cx="96" cy="53.333" r="10.667"/>
			<circle cx="138.667" cy="53.333" r="10.667"/>
		</g>
	</g>
</g>
<g>
</g>
<g>
</g>
<g>
</g>
<g>
</g>
<g>
</g>
<g>
</g>
<g>
</g>
<g>
</g>
<g>
</g>
<g>
</g>
<g>
</g>
<g>
</g>
<g>
</g>
<g>
</g>
<g>
</g>
</svg>
